<svg width="40" height="38" viewBox="0 0 40 38" fill="none" xmlns="http://www.w3.org/2000/svg">
<path d="M27.25 32.5417C22.0209 32.5417 17.5 29.5833 15.25 25.25H27.25L29.3334 21.0833H13.875C13.7709 20.3958 13.7084 19.7083 13.7084 19C13.7084 18.2917 13.7709 17.6042 13.875 16.9167H27.25L29.3334 12.75H15.25C17.5 8.41667 22.0417 5.45833 27.25 5.45833C30.6042 5.45833 33.6875 6.6875 36.0625 8.72917L39.75 5.04167C36.4375 2.0625 32.0417 0.25 27.25 0.25C19.0834 0.25 12.1667 5.47917 9.58335 12.75H2.25002L0.166687 16.9167H8.62502C8.54169 17.6042 8.50002 18.2917 8.50002 19C8.50002 19.7083 8.54169 20.3958 8.62502 21.0833H2.25002L0.166687 25.25H9.58335C12.1667 32.5208 19.0834 37.75 27.25 37.75C32.0625 37.75 36.4375 35.9375 39.75 32.9583L36.0417 29.2708C33.6875 31.3125 30.625 32.5417 27.25 32.5417Z" fill="#323232"/>
</svg>
