<svg width="44" height="38" viewBox="0 0 44 38" fill="none" xmlns="http://www.w3.org/2000/svg">
<path d="M25.0833 0.25C14.7291 0.25 6.33331 8.64583 6.33331 19H0.083313L8.18748 27.1042L8.33331 27.3958L16.75 19H10.5C10.5 10.9375 17.0208 4.41667 25.0833 4.41667C33.1458 4.41667 39.6666 10.9375 39.6666 19C39.6666 27.0625 33.1458 33.5833 25.0833 33.5833C21.0625 33.5833 17.4166 31.9375 14.7916 29.2917L11.8333 32.25C15.2291 35.6458 19.8958 37.75 25.0833 37.75C35.4375 37.75 43.8333 29.3542 43.8333 19C43.8333 8.64583 35.4375 0.25 25.0833 0.25ZM23 10.6667V21.0833L31.9167 26.375L33.4166 23.8542L26.125 19.5208V10.6667H23Z" fill="#323232"/>
</svg>
