<svg width="46" height="39" viewBox="0 0 46 39" fill="none" xmlns="http://www.w3.org/2000/svg">
<path d="M45.8958 15.7501C37.8958 7.75008 26.75 4.83342 16.4166 6.95842L21.6666 12.2084C28.8958 11.8542 36.2291 14.3959 41.7291 19.9167L45.8958 15.7501ZM37.5625 24.0834C34.875 21.3959 31.6458 19.6459 28.2083 18.7501L35.5625 26.1042L37.5625 24.0834ZM2.16665 3.35425L8.56248 9.70842C5.49998 11.2084 2.62498 13.2084 0.083313 15.7501L4.22915 19.9167C6.81248 17.3334 9.79165 15.4167 12.9791 14.1459L17.6458 18.8126C14.2708 19.6876 11.0625 21.4376 8.41665 24.0834V24.1042L12.5625 28.2501C15.3958 25.4167 19.1041 24.0001 22.8125 23.9584L37.5416 38.6667L40.1875 36.0418L4.85415 0.729248L2.16665 3.35425ZM16.75 32.4167L23 38.6667L29.25 32.4167C25.8125 28.9584 20.2083 28.9584 16.75 32.4167Z" fill="#323232"/>
</svg>
